<svg xmlns="http://www.w3.org/2000/svg" viewBox="0 0 64 64"><defs><style>.cls-1{fill:#0072ff;}</style></defs><title>Camera Settings</title><g id="Layer_2" data-name="Layer 2"><circle class="cls-1" cx="32" cy="36" r="4"/><path class="cls-1" d="M55.82,16H48.3a1.81,1.81,0,0,1-1.51-.81L43.3,10a4.39,4.39,0,0,0-3.65-2H24.35a4.39,4.39,0,0,0-3.65,2L17.2,15.19A1.81,1.81,0,0,1,15.7,16H8.18A4.18,4.18,0,0,0,4,20.18V50.49A5.51,5.51,0,0,0,9.51,56h45A5.51,5.51,0,0,0,60,50.49V20.18A4.18,4.18,0,0,0,55.82,16ZM41.72,33.68a9.85,9.85,0,0,1,0,4.64,1.22,1.22,0,0,0,.59,1.33h0a1.24,1.24,0,0,1,.45,1.69L42,42.66a1.24,1.24,0,0,1-1.69.45h0a1.22,1.22,0,0,0-1.45.16,10,10,0,0,1-4,2.31A1.22,1.22,0,0,0,34,46.76,1.24,1.24,0,0,1,32.76,48H31.24A1.24,1.24,0,0,1,30,46.76a1.22,1.22,0,0,0-.86-1.18,10,10,0,0,1-4-2.31,1.22,1.22,0,0,0-1.45-.16h0A1.24,1.24,0,0,1,22,42.66l-.76-1.32a1.24,1.24,0,0,1,.45-1.69h0a1.22,1.22,0,0,0,.59-1.33,9.85,9.85,0,0,1,0-4.64,1.22,1.22,0,0,0-.59-1.33h0a1.24,1.24,0,0,1-.45-1.69L22,29.34a1.24,1.24,0,0,1,1.69-.45h0a1.23,1.23,0,0,0,1.45-.16,10,10,0,0,1,4-2.31A1.22,1.22,0,0,0,30,25.24,1.24,1.24,0,0,1,31.24,24h1.52A1.24,1.24,0,0,1,34,25.24a1.22,1.22,0,0,0,.86,1.18,10,10,0,0,1,4,2.31,1.23,1.23,0,0,0,1.45.16h0a1.24,1.24,0,0,1,1.69.45l.76,1.32a1.24,1.24,0,0,1-.45,1.69h0A1.22,1.22,0,0,0,41.72,33.68ZM52,24a2,2,0,1,1,2-2A2,2,0,0,1,52,24Z"/><path class="cls-1" d="M54.82,12A1.18,1.18,0,0,0,56,10.82v-.61A2.22,2.22,0,0,0,53.78,8H49.63a.74.74,0,0,0-.74.74A3.26,3.26,0,0,0,52.15,12Z"/></g></svg>